# xmcd
#
# Track frame offsets: 
#        150
#        16038
#        33671
#        55795
#        73422
#        98417
#        119380
#        139160
#        171961
#        193014
#
# Disc length: 2988 seconds
#
# Revision: 0
# Processed by: cddbd v1.5.2PL0 Copyright (c) Steve Scherf et al.
# Submitted via: ExactAudioCopyFreeDBPlugin 1.0
#
DISCID=880baa0a
DTITLE=Hector Anchondo Band - Roll the Dice
DYEAR=2017
DGENRE=Blues
TTITLE0=Dig You Baby ft. Amanda Fish
TTITLE1=Masquerade
TTITLE2=Roll the Dice
TTITLE3=Face it Down
TTITLE4=Sometimes Being Alone Feels Right
TTITLE5=That's How it All Goes
TTITLE6=Jump in the Water
TTITLE7=Black Magic Woman
TTITLE8=On Your Mic, Get Set, Sing
TTITLE9=Here's to Me Giving Up
EXTD=
EXTT0=
EXTT1=
EXTT2=
EXTT3=
EXTT4=
EXTT5=
EXTT6=
EXTT7=
EXTT8=
EXTT9=
PLAYORDER=
